<?xml version="1.0" encoding="UTF-8"?>
<svg version="1.1" xmlns="http://www.w3.org/2000/svg" width="1000" height="1000">
<path d="M0 0 C2.23703375 -0.00374269 4.47406619 -0.00834667 6.71109658 -0.01373065 C12.82143049 -0.02590002 18.93170939 -0.02570735 25.04205263 -0.02334189 C30.96742557 -0.02297433 36.89278271 -0.03197449 42.81814781 -0.04056767 C56.42603815 -0.05985243 70.03391334 -0.06553389 83.64181574 -0.06668179 C94.15939946 -0.06760317 104.67697729 -0.07173178 115.1945591 -0.07808304 C118.22925021 -0.07987833 121.26394132 -0.08165796 124.29863244 -0.08343279 C125.05322007 -0.08387489 125.80780769 -0.08431699 126.5852616 -0.08477248 C147.79572543 -0.09707191 169.00618722 -0.10497455 190.21665478 -0.10408592 C191.41483736 -0.10403919 191.41483736 -0.10403919 192.63722566 -0.10399151 C196.68518433 -0.10382531 200.733143 -0.10362723 204.78110167 -0.10342209 C205.58493868 -0.1033822 206.3887757 -0.10334231 207.21697142 -0.10330121 C208.84252634 -0.10322034 210.46808127 -0.10313674 212.09363619 -0.10305043 C237.35845243 -0.10182619 262.62321489 -0.11681842 287.88801575 -0.14419556 C316.32100305 -0.17499359 344.75395502 -0.19212332 373.18696004 -0.19026911 C376.22573777 -0.19011987 379.2645155 -0.19002245 382.30329323 -0.18996048 C383.42549511 -0.18992552 383.42549511 -0.18992552 384.57036774 -0.18988985 C396.55119015 -0.18982859 408.53196545 -0.202539 420.51277391 -0.21982501 C432.58045889 -0.23687469 444.64807583 -0.23868305 456.71576627 -0.22560637 C463.23885259 -0.21891692 469.76180446 -0.21882485 476.28487778 -0.23631287 C554.51077894 -0.43269184 622.61285861 18.41048087 679.43122864 74.82992554 C685.23288763 80.67289848 690.60841259 86.725109 695.61872864 93.26742554 C696.68607239 94.62674194 696.68607239 94.62674194 697.77497864 96.01351929 C718.80037932 123.294717 733.90806062 153.93169201 742.61872864 187.26742554 C742.81160461 188.00444702 743.00448059 188.74146851 743.20320129 189.50082397 C748.41433937 209.93648138 750.07160852 230.50285251 749.99967957 251.53085327 C750.00314634 253.77820531 750.00791767 256.02555564 750.0138613 258.27290249 C750.02626094 264.37903685 750.02025179 270.48502862 750.01090264 276.59116316 C750.00477114 282.52205954 750.01283306 288.45293326 750.02034474 294.38382438 C750.0360617 307.24621717 750.03480502 320.10856499 750.026108 332.97096196 C750.01853489 344.22765537 750.01660349 355.48433239 750.02017593 366.74102783 C750.02051967 367.86490848 750.02051967 367.86490848 750.02087034 369.01149379 C750.02180449 372.05363437 750.02275971 375.09577493 750.02374964 378.13791549 C750.03290842 406.62407993 750.02463522 435.11021589 750.00845894 463.59637593 C749.99422416 488.85555616 749.99549813 514.11469101 750.00984192 539.37387085 C750.02593666 567.81088106 750.03225866 596.24786613 750.02300513 624.68488026 C750.0220431 627.72119458 750.02110457 630.75750891 750.02017593 633.79382324 C750.01982009 634.91509368 750.01982009 634.91509368 750.01945705 636.05901604 C750.01605734 647.30336871 750.02001164 658.54770309 750.02761459 669.79205322 C750.03622451 682.58874276 750.0339798 695.38538065 750.01777236 708.18206382 C750.00978455 714.70240482 750.00673648 721.22267313 750.01671982 727.74301529 C750.02574199 733.72639903 750.02061155 739.70960708 750.00478716 745.69297516 C750.00147091 747.84274821 750.00306099 749.9925365 750.01041453 752.14229953 C750.06953035 770.88051613 748.55955611 789.48797111 743.93122864 807.70492554 C743.67776672 808.72658813 743.42430481 809.74825073 743.16316223 810.8008728 C735.68230713 840.07583277 724.08722576 867.53515172 706.61872864 892.26742554 C705.97290833 893.18781616 705.32708801 894.10820679 704.66169739 895.05648804 C689.85310246 915.79436259 672.2005818 934.98329519 651.61872864 950.07992554 C650.79058655 950.68739624 649.96244446 951.29486694 649.10920715 951.92074585 C641.50532067 957.44104654 633.70565392 962.49003999 625.61872864 967.26742554 C624.94616028 967.67412476 624.27359192 968.08082397 623.5806427 968.49984741 C597.4469612 984.23652176 567.70794033 993.83775024 537.61872864 998.26742554 C536.54400022 998.43525972 535.4692718 998.6030939 534.36197585 998.77601397 C522.63631047 1000.44709851 511.06589624 1000.55375007 499.23745728 1000.53485107 C497.00042353 1000.53859377 494.76339109 1000.54319774 492.52636069 1000.54858172 C486.41602679 1000.5607511 480.30574789 1000.56055842 474.19540465 1000.55819297 C468.27003171 1000.55782541 462.34467457 1000.56682557 456.41930946 1000.57541875 C442.81141913 1000.59470351 429.20354393 1000.60038496 415.59564153 1000.60153286 C405.07805782 1000.60245425 394.56047998 1000.60658286 384.04289818 1000.61293411 C381.00820707 1000.6147294 377.97351595 1000.61650903 374.93882483 1000.61828387 C374.18423721 1000.61872596 373.42964959 1000.61916806 372.65219567 1000.61962355 C351.44173184 1000.63192298 330.23127005 1000.63982563 309.0208025 1000.638937 C307.82261991 1000.63889026 307.82261991 1000.63889026 306.60023162 1000.63884258 C302.55227295 1000.63867638 298.50431428 1000.6384783 294.45635561 1000.63827316 C293.65251859 1000.63823327 292.84868157 1000.63819338 292.02048586 1000.63815228 C290.39493093 1000.63807141 288.76937601 1000.63798781 287.14382108 1000.6379015 C261.87900485 1000.63667726 236.61424238 1000.6516695 211.34944153 1000.67904663 C182.91645423 1000.70984466 154.48350225 1000.72697439 126.05049723 1000.72512019 C123.01171951 1000.72497094 119.97294178 1000.72487352 116.93416405 1000.72481155 C115.81196216 1000.72477659 115.81196216 1000.72477659 114.66708954 1000.72474092 C102.68626713 1000.72467966 90.70549182 1000.73739007 78.72468337 1000.75467608 C66.65699838 1000.77172577 54.58938144 1000.77353412 42.521691 1000.76045744 C35.99860468 1000.75376799 29.47565282 1000.75367593 22.9525795 1000.77116394 C-25.69530629 1000.89331509 -71.76870532 997.17910545 -115.38127136 973.26742554 C-116.89812213 972.45348122 -118.41505277 971.63968573 -119.93205261 970.82601929 C-128.72052284 966.06860537 -137.23580514 961.07513247 -145.38127136 955.26742554 C-145.97053406 954.85331421 -146.55979675 954.43920288 -147.16691589 954.01254272 C-158.48436637 946.01522569 -168.47741513 936.9372053 -178.38127136 927.26742554 C-179.29006042 926.39859741 -180.19884949 925.52976929 -181.13517761 924.63461304 C-186.70581899 919.22866888 -191.5983721 913.37520456 -196.38127136 907.26742554 C-197.10056824 906.35348022 -197.81986511 905.43953491 -198.56095886 904.49789429 C-222.2129335 873.73349311 -238.01968711 838.99505001 -246.13127136 801.07992554 C-246.33018982 800.15494263 -246.52910828 799.22995972 -246.73405457 798.27694702 C-250.0224822 782.08309852 -250.67503619 766.22693085 -250.6486969 749.76589966 C-250.6524403 747.52800286 -250.65704456 745.29010736 -250.66242754 743.05221391 C-250.67458799 736.94413934 -250.67440532 730.83611982 -250.67203879 724.72803593 C-250.67167104 718.80343572 -250.68067356 712.87885128 -250.68926457 706.9542589 C-250.70854242 693.3497743 -250.71423051 679.74530485 -250.71537869 666.14080819 C-250.71630026 655.62610881 -250.72042985 645.11141531 -250.72677994 634.59671783 C-250.72857524 631.56228964 -250.73035487 628.52786144 -250.73212969 625.49343324 C-250.73257179 624.73890287 -250.73301389 623.9843725 -250.73346938 623.20697758 C-250.74576746 602.00044162 -250.75367158 580.7939077 -250.75278282 559.58736801 C-250.75275166 558.78884564 -250.75272051 557.99032326 -250.75268841 557.16760324 C-250.75252221 553.1210354 -250.75232413 549.07446755 -250.75211899 545.02789971 C-250.7520791 544.22434503 -250.75203921 543.42079036 -250.75199811 542.59288554 C-250.75191723 540.96790228 -250.75183364 539.34291902 -250.75174733 537.71793576 C-250.75052297 512.45966971 -250.76551796 487.20145745 -250.79289246 461.94320679 C-250.82369039 433.51497325 -250.84082025 405.08677505 -250.83896601 376.6585238 C-250.83881677 373.62032334 -250.83871935 370.58212289 -250.83865738 367.54392242 C-250.83863407 366.79593434 -250.83861076 366.04794625 -250.83858675 365.27729185 C-250.83852549 353.2993139 -250.85123529 341.32138306 -250.86852191 329.34341906 C-250.88557136 317.27921674 -250.8873801 305.21508248 -250.87430327 293.1508747 C-250.86761387 286.62980669 -250.86752162 280.10887316 -250.88500977 273.58781815 C-251.0050137 225.76606679 -247.47548481 180.205805 -224.38127136 137.14096069 C-223.36045257 135.22842079 -222.36867852 133.30287029 -221.38127136 131.37289429 C-217.21753893 123.30058002 -212.62122374 115.70180024 -207.38127136 108.26742554 C-206.73287292 107.34316772 -206.08447449 106.41890991 -205.41642761 105.46664429 C-167.09704924 51.81951457 -109.29250299 14.0155318 -43.94767761 3.09164429 C-42.09248984 2.81501378 -40.23696858 2.54061768 -38.38127136 2.26742554 C-37.30654294 2.09959135 -36.23181452 1.93175717 -35.12451857 1.7588371 C-23.3988532 0.08775256 -11.82843896 -0.01889899 0 0 Z " fill="#007F00" transform="translate(250.3812713623047,-0.267425537109375)"/>
<path d="M0 0 C1.23492187 0.30164063 2.46984375 0.60328125 3.7421875 0.9140625 C26.49754778 6.58222073 48.94256179 16.25524917 68 30 C68.53979492 30.38865234 69.07958984 30.77730469 69.63574219 31.17773438 C77.94991337 37.21998166 85.58752756 43.89156856 93 51 C93.79688232 51.75603516 93.79688232 51.75603516 94.60986328 52.52734375 C116.75018152 73.62212869 132.35092064 99.44255894 143 128 C143.35707031 128.93457031 143.71414063 129.86914062 144.08203125 130.83203125 C146.42191352 137.3482771 148.05179006 144.01615414 149.625 150.75 C149.83133057 151.61826416 150.03766113 152.48652832 150.25024414 153.38110352 C153.31219775 166.95539157 154.41449775 180.49513265 154.375 194.375 C154.37418427 195.47018448 154.37418427 195.47018448 154.37335205 196.5874939 C154.18392446 252.47999969 130.16991426 301.95343177 91.15625 341.09936523 C85.1902524 346.94883945 78.70416839 352.03085619 72 357 C70.74123047 357.95132813 70.74123047 357.95132813 69.45703125 358.921875 C50.9517761 372.4366007 29.76260718 381.30564313 8 388 C6.95070313 388.32871094 5.90140625 388.65742187 4.8203125 388.99609375 C-0.54933462 390.57108143 -5.99969195 391.62516301 -11.5 392.625 C-12.51465332 392.8101416 -12.51465332 392.8101416 -13.54980469 392.99902344 C-63.41734562 401.60016165 -116.34672772 389.73868485 -158.125 361.375 C-194.70322774 334.84988518 -223.6408593 299.71629252 -237 256 C-237.20818359 255.33790527 -237.41636719 254.67581055 -237.63085938 253.99365234 C-241.31712132 242.15923809 -243.52989987 230.29873563 -245 218 C-245.09571289 217.21633057 -245.19142578 216.43266113 -245.29003906 215.62524414 C-250.97779723 164.81766243 -236.26708566 112.91092612 -204.81201172 72.64941406 C-200.61216284 67.40407435 -196.1423873 62.42144561 -191.49804688 57.56982422 C-190.47692376 56.49977506 -189.46285522 55.42295983 -188.45507812 54.34033203 C-165.51340663 29.73489795 -132.91181964 9.76845236 -100.0625 1.9375 C-98.67436606 1.60594195 -97.28634585 1.27390737 -95.8984375 0.94140625 C-95.23166992 0.7830127 -94.56490234 0.62461914 -93.87792969 0.46142578 C-92.23571807 0.05791825 -90.60483753 -0.3911502 -88.9765625 -0.84765625 C-61.39979423 -8.53361827 -27.44627422 -7.83060606 0 0 Z " fill="#FEFEFE" transform="translate(321,530)"/>
<path d="M0 0 C1.23492188 0.30164063 2.46984375 0.60328125 3.7421875 0.9140625 C26.49754778 6.58222073 48.94256179 16.25524917 68 30 C68.53979492 30.38865234 69.07958984 30.77730469 69.63574219 31.17773438 C77.94991337 37.21998166 85.58752756 43.89156856 93 51 C93.79688232 51.75603516 93.79688232 51.75603516 94.60986328 52.52734375 C116.75018152 73.62212869 132.35092064 99.44255894 143 128 C143.35707031 128.93457031 143.71414063 129.86914062 144.08203125 130.83203125 C146.42191352 137.3482771 148.05179006 144.01615414 149.625 150.75 C149.83133057 151.61826416 150.03766113 152.48652832 150.25024414 153.38110352 C153.31219775 166.95539157 154.41449775 180.49513265 154.375 194.375 C154.37418427 195.47018448 154.37418427 195.47018448 154.37335205 196.5874939 C154.18392446 252.47999969 130.16991426 301.95343177 91.15625 341.09936523 C85.1902524 346.94883945 78.70416839 352.03085619 72 357 C70.74123047 357.95132813 70.74123047 357.95132813 69.45703125 358.921875 C50.9517761 372.4366007 29.76260718 381.30564313 8 388 C6.95070313 388.32871094 5.90140625 388.65742188 4.8203125 388.99609375 C-0.54933462 390.57108143 -5.99969195 391.62516301 -11.5 392.625 C-12.51465332 392.8101416 -12.51465332 392.8101416 -13.54980469 392.99902344 C-63.41734562 401.60016165 -116.34672772 389.73868485 -158.125 361.375 C-194.70322774 334.84988518 -223.6408593 299.71629252 -237 256 C-237.20818359 255.33790527 -237.41636719 254.67581055 -237.63085938 253.99365234 C-241.31712132 242.15923809 -243.52989987 230.29873563 -245 218 C-245.09571289 217.21633057 -245.19142578 216.43266113 -245.29003906 215.62524414 C-250.97779723 164.81766243 -236.26708566 112.91092612 -204.81201172 72.64941406 C-200.61216284 67.40407435 -196.1423873 62.42144561 -191.49804688 57.56982422 C-190.47692376 56.49977506 -189.46285522 55.42295983 -188.45507812 54.34033203 C-165.51340663 29.73489795 -132.91181964 9.76845236 -100.0625 1.9375 C-98.67436606 1.60594195 -97.28634585 1.27390737 -95.8984375 0.94140625 C-95.23166992 0.7830127 -94.56490234 0.62461914 -93.87792969 0.46142578 C-92.23571807 0.05791825 -90.60483753 -0.3911502 -88.9765625 -0.84765625 C-61.39979423 -8.53361827 -27.44627422 -7.83060606 0 0 Z " fill="#FEFEFE" transform="translate(771,80)"/>
<path d="M0 0 C1.2375 0.30164063 2.475 0.60328125 3.75 0.9140625 C26.5025369 6.59083783 48.94242551 16.25515088 68 30 C68.53979492 30.38865234 69.07958984 30.77730469 69.63574219 31.17773438 C77.3699795 36.79852007 84.56606674 42.9346368 91.47314453 49.54052734 C92.50315775 50.52508427 93.53812459 51.5044814 94.57763672 52.47900391 C117.4067818 73.93381919 133.903938 101.45302412 144 131 C144.36867188 132.07636719 144.73734375 133.15273438 145.1171875 134.26171875 C156.9790315 170.90470197 157.72858101 211.97126114 147 249 C146.77892578 249.77666016 146.55785156 250.55332031 146.33007812 251.35351562 C140.39529856 271.73120048 131.44536616 291.74419089 119 309 C118.61134766 309.53979492 118.22269531 310.07958984 117.82226562 310.63574219 C111.77988611 318.95009532 105.1034118 326.58266559 98 334 C97.29254639 334.74830078 97.29254639 334.74830078 96.57080078 335.51171875 C88.98007573 343.51115537 80.84288007 350.42235832 72 357 C70.73929688 357.95326172 70.73929688 357.95326172 69.453125 358.92578125 C50.92931194 372.44567836 29.76460228 381.26527482 8 388 C6.98550781 388.32871094 5.97101563 388.65742187 4.92578125 388.99609375 C-3.39330141 391.51663214 -12.10283375 392.52176596 -20.69677734 393.68554688 C-22.71338501 393.96086919 -24.72624579 394.2633562 -26.73828125 394.5703125 C-75.90878319 400.54114767 -128.00887481 385.03107986 -166.87890625 354.7578125 C-173.12496807 349.73663902 -179.15155708 344.47807025 -185 339 C-185.49226074 338.54173828 -185.98452148 338.08347656 -186.49169922 337.61132812 C-222.91645251 303.42268465 -243.82401505 253.9722922 -246.17285156 204.34814453 C-247.80181019 151.33854558 -230.81221483 99.65840237 -194.30322266 60.51586914 C-193.35794842 59.5170239 -192.40999107 58.52071157 -191.45947266 57.52685547 C-190.47491573 56.49684225 -189.4955186 55.46187541 -188.52099609 54.42236328 C-164.13994395 28.47953556 -132.00964885 10.87011775 -98 1 C-96.33904297 0.51273438 -96.33904297 0.51273438 -94.64453125 0.015625 C-91.43953919 -0.81420121 -88.2639178 -1.4407727 -85 -2 C-84.22011719 -2.13390137 -83.44023438 -2.26780273 -82.63671875 -2.40576172 C-55.64922831 -6.84870227 -26.47829962 -7.36531283 0 0 Z " fill="#000000" transform="translate(771,530)"/>
<path d="M0 0 C1.2375 0.30164063 2.475 0.60328125 3.75 0.9140625 C26.5025369 6.59083783 48.94242551 16.25515088 68 30 C68.53979492 30.38865234 69.07958984 30.77730469 69.63574219 31.17773438 C77.3699795 36.79852007 84.56606674 42.9346368 91.47314453 49.54052734 C92.50315775 50.52508427 93.53812459 51.5044814 94.57763672 52.47900391 C117.4067818 73.93381919 133.903938 101.45302412 144 131 C144.36867188 132.07636719 144.73734375 133.15273437 145.1171875 134.26171875 C156.9790315 170.90470197 157.72858101 211.97126114 147 249 C146.77892578 249.77666016 146.55785156 250.55332031 146.33007812 251.35351562 C140.39529856 271.73120048 131.44536616 291.74419089 119 309 C118.61134766 309.53979492 118.22269531 310.07958984 117.82226562 310.63574219 C111.77988611 318.95009532 105.1034118 326.58266559 98 334 C97.29254639 334.74830078 97.29254639 334.74830078 96.57080078 335.51171875 C88.98007573 343.51115537 80.84288007 350.42235832 72 357 C70.73929687 357.95326172 70.73929687 357.95326172 69.453125 358.92578125 C50.92931194 372.44567836 29.76460228 381.26527482 8 388 C6.98550781 388.32871094 5.97101563 388.65742188 4.92578125 388.99609375 C-3.39330141 391.51663214 -12.10283375 392.52176596 -20.69677734 393.68554688 C-22.71338501 393.96086919 -24.72624579 394.2633562 -26.73828125 394.5703125 C-75.90878319 400.54114767 -128.00887481 385.03107986 -166.87890625 354.7578125 C-173.12496807 349.73663902 -179.15155708 344.47807025 -185 339 C-185.49226074 338.54173828 -185.98452148 338.08347656 -186.49169922 337.61132812 C-222.91645251 303.42268465 -243.82401505 253.9722922 -246.17285156 204.34814453 C-247.80181019 151.33854558 -230.81221483 99.65840237 -194.30322266 60.51586914 C-193.35794842 59.5170239 -192.40999107 58.52071157 -191.45947266 57.52685547 C-190.47491573 56.49684225 -189.4955186 55.46187541 -188.52099609 54.42236328 C-164.13994395 28.47953556 -132.00964885 10.87011775 -98 1 C-96.33904297 0.51273437 -96.33904297 0.51273437 -94.64453125 0.015625 C-91.43953919 -0.81420121 -88.2639178 -1.4407727 -85 -2 C-84.22011719 -2.13390137 -83.44023437 -2.26780273 -82.63671875 -2.40576172 C-55.64922831 -6.84870227 -26.47829962 -7.36531283 0 0 Z " fill="#000000" transform="translate(321,80)"/>
</svg>
